<?xml version="1.0" ?>
<!-- Uploaded to: SVG Repo, www.svgrepo.com, Generator: SVG Repo Mixer Tools -->
<svg fill="#000000" width="800px" height="800px" viewBox="0 0 100 100" version="1.1" xml:space="preserve" xmlns="http://www.w3.org/2000/svg" xmlns:xlink="http://www.w3.org/1999/xlink">
<g id="tree"/>
<g id="plant"/>
<g id="flower"/>
<g id="flower_pot"/>
<g id="rose"/>
<g id="garden"/>
<g id="fance"/>
<g id="floral"/>
<g id="sunflower">
<path d="M92.8,81.1c-0.3-0.2-0.6-0.4-1-0.6c-0.3-0.2-0.8-0.7-1.2-1.2c-0.8-0.9-1.7-1.9-3-2.4c-0.9-0.3-1.9-0.2-2.8-0.1   c-0.7,0.1-1.4,0.2-2,0.1c-0.3-0.1-0.6-0.2-0.9-0.4V61.4l3.4-3.4c1.1-0.1,5.4-0.8,7.3-4.8c2.1-4.2,1-11.1,0.9-11.4   c-0.1-0.3-0.3-0.6-0.5-0.7c-0.3-0.1-0.6-0.1-0.9,0c-0.3,0.1-6.4,3.4-8.5,7.6c-1.7,3.3-0.6,6.6,0.1,8L82,58.6V43.8   c1.6-0.7,2.6-2.9,3-5.1c1.4,1,3.1,1.7,4.5,1.7c0.8,0,1.5-0.2,2.1-0.8c0,0,0,0,0,0c1.5-1.5,0.6-4.4-0.9-6.6c2.6-0.5,5.3-1.9,5.3-4   c0-2.1-2.7-3.5-5.3-4c1.5-2.2,2.4-5.1,0.9-6.6c-1.5-1.5-4.4-0.6-6.6,0.9c-0.5-2.6-1.9-5.3-4-5.3s-3.5,2.7-4,5.3   c-2.2-1.5-5.1-2.4-6.6-0.9c-1.5,1.5-0.6,4.4,0.9,6.6c-2.6,0.5-5.3,1.9-5.3,4s2.7,3.5,5.3,4c-1.5,2.2-2.4,5.1-0.9,6.6   c0.5,0.5,1.3,0.8,2.1,0.8c1.4,0,3.1-0.7,4.5-1.7c0.4,2.2,1.4,4.4,3,5.1v19.8l-1.8-1.8c0.7-1.5,1.7-4.7,0.1-8   c-2.1-4.2-8.2-7.5-8.5-7.6c-0.3-0.1-0.6-0.2-0.9,0c-0.3,0.1-0.5,0.4-0.5,0.7c0,0.3-1.1,7.2,0.9,11.4c2,3.9,6.3,4.6,7.3,4.8l3.4,3.4   v8.8c-0.5-0.3-1.1-0.5-1.6-0.6c-1-0.1-1.9,0.2-2.8,0.5c-0.7,0.2-1.4,0.5-1.9,0.4c-0.5,0-1.1-0.3-1.8-0.7C71,74.5,70.1,74,69,74   c-1.1,0-2,0.5-2.9,0.9c-0.6,0.3-1.3,0.6-1.8,0.7c-0.6,0-1.2-0.2-1.9-0.4c-0.9-0.3-1.8-0.6-2.8-0.5c-1.1,0.2-2,0.8-2.9,1.4   c-0.6,0.4-1.2,0.8-1.6,0.9c-0.6,0.1-1.3,0-2-0.1c-0.7-0.1-1.4-0.2-2.1-0.1V61.4l3.4-3.4c1.1-0.1,5.4-0.8,7.3-4.8   c2.1-4.2,1-11.1,0.9-11.4c-0.1-0.3-0.3-0.6-0.5-0.7c-0.3-0.1-0.6-0.1-0.9,0c-0.3,0.1-6.4,3.4-8.5,7.6c-1.7,3.3-0.6,6.6,0.1,8   L51,58.6V43.8c1.6-0.7,2.6-2.9,3-5.1c1.4,1,3.1,1.7,4.5,1.7c0.8,0,1.5-0.2,2.1-0.8c0,0,0,0,0,0c1.5-1.5,0.6-4.4-0.9-6.6   c2.6-0.5,5.3-1.9,5.3-4c0-2.1-2.7-3.5-5.3-4c1.5-2.2,2.4-5.1,0.9-6.6c-1.5-1.5-4.4-0.6-6.6,0.9c-0.5-2.6-1.9-5.3-4-5.3   s-3.5,2.7-4,5.3c-2.2-1.5-5.1-2.4-6.6-0.9c-1.5,1.5-0.6,4.4,0.9,6.6c-2.6,0.5-5.3,1.9-5.3,4s2.7,3.5,5.3,4   c-1.5,2.2-2.4,5.1-0.9,6.6c0.5,0.5,1.3,0.8,2.1,0.8c1.4,0,3.1-0.7,4.5-1.7c0.4,2.2,1.4,4.4,3,5.1v19.8l-1.8-1.8   c0.7-1.5,1.7-4.7,0.1-8c-2.1-4.2-8.2-7.5-8.5-7.6c-0.3-0.1-0.6-0.2-0.9,0c-0.3,0.1-0.5,0.4-0.5,0.7c0,0.3-1.1,7.2,0.9,11.4   c2,3.9,6.3,4.6,7.3,4.8l3.4,3.4v10.3c-0.7-0.1-1.4,0-2.1,0.1c-0.7,0.1-1.4,0.2-2,0.1c-0.5-0.1-1-0.5-1.6-0.9   c-0.8-0.6-1.8-1.2-2.9-1.3c-1-0.1-1.9,0.2-2.8,0.5c-0.7,0.2-1.4,0.5-1.9,0.4c-0.5,0-1.1-0.3-1.8-0.7C33,74.5,32.1,74,31,74   s-2,0.5-2.9,0.9c-0.6,0.3-1.3,0.6-1.8,0.7c-0.6,0-1.2-0.2-1.9-0.4c-0.9-0.3-1.8-0.6-2.8-0.5c-0.6,0.1-1.1,0.3-1.6,0.6V61.4l3.4-3.4   c1.1-0.1,5.4-0.8,7.3-4.8c2.1-4.2,1-11.1,0.9-11.4c-0.1-0.3-0.3-0.6-0.5-0.7c-0.3-0.1-0.6-0.1-0.9,0c-0.3,0.1-6.4,3.4-8.5,7.6   c-1.7,3.3-0.6,6.6,0.1,8L20,58.6V43.8c1.6-0.7,2.6-2.9,3-5.1c1.4,1,3.1,1.7,4.5,1.7c0.8,0,1.5-0.2,2.1-0.8c0,0,0,0,0,0   c1.5-1.5,0.6-4.4-0.9-6.6c2.6-0.5,5.3-1.9,5.3-4c0-2.1-2.7-3.5-5.3-4c1.5-2.2,2.4-5.1,0.9-6.6c-1.5-1.5-4.4-0.6-6.6,0.9   c-0.5-2.6-1.9-5.3-4-5.3c-2.1,0-3.5,2.7-4,5.3c-2.2-1.5-5.1-2.4-6.6-0.9c-1.5,1.5-0.6,4.4,0.9,6.6C6.7,25.5,4,26.9,4,29   s2.7,3.5,5.3,4c-1.5,2.2-2.4,5.1-0.9,6.6c0.5,0.5,1.3,0.8,2.1,0.8c1.4,0,3.1-0.7,4.5-1.7c0.4,2.2,1.4,4.4,3,5.1v19.8l-1.8-1.8   c0.7-1.5,1.7-4.7,0.1-8c-2.1-4.2-8.2-7.5-8.5-7.6c-0.3-0.1-0.6-0.2-0.9,0c-0.3,0.1-0.5,0.4-0.5,0.7c0,0.3-1.1,7.2,0.9,11.4   c2,3.9,6.3,4.6,7.3,4.8l3.4,3.4v10.1c-0.3,0.2-0.6,0.3-0.9,0.4c-0.6,0.1-1.3,0-2-0.1c-0.9-0.1-1.9-0.3-2.8,0.1   c-1.3,0.5-2.2,1.5-3,2.4c-0.4,0.5-0.8,0.9-1.2,1.2c-0.3,0.2-0.6,0.4-0.9,0.6C5.6,82.1,4,83.1,4,85c0,0.6,0.4,1,1,1h38h14h38   c0.6,0,1-0.4,1-1C96,83.2,94.4,82.1,92.8,81.1z M85.6,49.6c1.3-2.6,4.5-4.8,6.3-6c0.2,2.1,0.3,6.1-0.9,8.7c-1.3,2.6-4,3.4-5.3,3.6   C85.1,54.8,84.3,52.2,85.6,49.6z M71.1,57.3c-1.3-2.6-1.1-6.6-0.9-8.7c1.8,1.1,5.1,3.4,6.3,6c1.3,2.6,0.4,5.2-0.1,6.3   C75.1,60.7,72.4,60,71.1,57.3z M54.6,49.6c1.3-2.6,4.5-4.8,6.3-6c0.2,2.1,0.3,6.1-0.9,8.7c-1.3,2.6-4,3.4-5.3,3.6   C54.1,54.8,53.3,52.2,54.6,49.6z M40.1,57.3c-1.3-2.6-1.1-6.6-0.9-8.7c1.8,1.1,5.1,3.4,6.3,6c1.3,2.6,0.4,5.2-0.1,6.3   C44.1,60.7,41.4,60,40.1,57.3z M23.6,49.6c1.3-2.6,4.5-4.8,6.3-6c0.2,2.1,0.3,6.1-0.9,8.7c-1.3,2.6-4,3.4-5.3,3.6   C23.1,54.8,22.3,52.2,23.6,49.6z M9.1,57.3c-1.3-2.6-1.1-6.6-0.9-8.7c1.8,1.1,5.1,3.4,6.3,6c1.3,2.6,0.4,5.2-0.1,6.3   C13.1,60.7,10.4,60,9.1,57.3z M82.4,32c-0.1,0.1-0.2,0.1-0.3,0.1c-0.7,0.2-1.4,0.2-2.2,0c-0.1,0-0.2-0.1-0.3-0.1c0,0,0,0,0,0   c0,0,0,0,0,0c-0.7-0.3-1.2-0.8-1.5-1.5c0,0,0,0,0,0c0,0,0,0,0,0c-0.1-0.1-0.1-0.2-0.1-0.3c0,0,0,0,0,0c-0.1-0.4-0.2-0.7-0.2-1.1   s0.1-0.7,0.2-1.1c0-0.1,0.1-0.2,0.1-0.3c0,0,0,0,0,0c0,0,0,0,0,0c0.3-0.7,0.8-1.2,1.5-1.5c0,0,0,0,0,0c0,0,0,0,0,0   c0.1-0.1,0.2-0.1,0.3-0.1c0.7-0.2,1.4-0.2,2.2,0c0.1,0,0.2,0.1,0.3,0.1c0,0,0,0,0,0c0,0,0,0,0,0c0.7,0.3,1.2,0.8,1.5,1.5   c0,0,0,0,0,0c0,0,0,0,0,0c0.1,0.1,0.1,0.2,0.1,0.3c0.1,0.4,0.2,0.7,0.2,1.1s-0.1,0.7-0.2,1.1c0,0.1-0.1,0.2-0.1,0.3c0,0,0,0,0,0   c0,0,0,0,0,0C83.6,31.1,83.1,31.6,82.4,32C82.4,32,82.4,32,82.4,32C82.4,32,82.4,32,82.4,32z M90.2,38.2L90.2,38.2   c-0.5,0.5-3-0.1-5-1.8c0-0.1,0-0.2,0-0.2c0-0.2,0-0.5-0.1-0.7c0-0.1,0-0.2,0-0.3c0-0.2-0.1-0.4-0.1-0.5c0-0.1,0-0.2-0.1-0.3   c-0.1-0.2-0.1-0.3-0.2-0.5c0-0.1,0-0.1-0.1-0.2c-0.1-0.2-0.2-0.4-0.3-0.6c0,0,0,0,0,0c0.3-0.2,0.5-0.4,0.7-0.7c0,0,0,0,0,0   c0.2,0.1,0.4,0.2,0.6,0.3c0.1,0,0.1,0,0.2,0.1c0.2,0.1,0.3,0.1,0.5,0.2c0.1,0,0.2,0,0.3,0.1c0.2,0,0.3,0.1,0.5,0.1   c0.1,0,0.2,0,0.3,0c0.2,0,0.4,0,0.7,0.1c0.1,0,0.1,0,0.2,0C90.1,35.2,90.7,37.6,90.2,38.2z M94,29c0,0.8-2.4,2.2-5.2,2.2   c0,0-0.1,0-0.1,0c0,0-0.1,0-0.1,0c-0.3,0-0.6,0-0.9-0.1c-0.1,0-0.2,0-0.2,0c-0.2,0-0.4-0.1-0.5-0.1c-0.1,0-0.2,0-0.2-0.1   c-0.2-0.1-0.3-0.1-0.4-0.2c0,0-0.1,0-0.1-0.1c0,0,0,0,0,0c0.2-0.5,0.3-1.1,0.3-1.6c0-0.5-0.1-1.1-0.3-1.6c0,0,0,0,0,0   c0,0,0.1-0.1,0.1-0.1c0.1-0.1,0.3-0.2,0.4-0.2c0.1,0,0.1-0.1,0.2-0.1c0.2,0,0.3-0.1,0.5-0.1c0.1,0,0.2,0,0.2,0   c0.3,0,0.6-0.1,0.9-0.1c0,0,0.1,0,0.1,0c0,0,0.1,0,0.1,0C91.6,26.8,94,28.2,94,29z M90.2,19.8c0.5,0.5-0.1,3-1.8,5   c-0.1,0-0.1,0-0.2,0c-0.2,0-0.5,0-0.7,0.1c-0.1,0-0.2,0-0.3,0c-0.2,0-0.4,0.1-0.5,0.1c-0.1,0-0.2,0-0.3,0.1   c-0.2,0.1-0.3,0.1-0.5,0.2c-0.1,0-0.1,0-0.2,0.1c-0.2,0.1-0.4,0.2-0.6,0.3c0,0,0,0,0,0c-0.2-0.3-0.4-0.5-0.7-0.7c0,0,0,0,0,0   c0.1-0.2,0.2-0.4,0.3-0.6c0-0.1,0-0.1,0.1-0.2c0.1-0.2,0.1-0.3,0.2-0.5c0-0.1,0-0.2,0.1-0.3c0-0.2,0.1-0.3,0.1-0.5   c0-0.1,0-0.2,0-0.3c0-0.2,0-0.4,0.1-0.7c0-0.1,0-0.1,0-0.2C87.2,19.9,89.6,19.3,90.2,19.8z M78.8,21.2c0.1-2.8,1.4-5.2,2.2-5.2   s2.2,2.4,2.2,5.2c0,0,0,0.1,0,0.1c0,0,0,0.1,0,0.1c0,0.3,0,0.6-0.1,0.9c0,0.1,0,0.2,0,0.2c0,0.2-0.1,0.4-0.1,0.5   c0,0.1,0,0.2-0.1,0.2c-0.1,0.2-0.1,0.3-0.2,0.4c0,0-0.1,0.1-0.1,0.1c0,0,0,0,0,0c-0.5-0.2-1.1-0.3-1.6-0.3c-0.5,0-1.1,0.1-1.6,0.3   c0,0,0,0,0,0c0,0-0.1-0.1-0.1-0.1c-0.1-0.1-0.1-0.3-0.2-0.4c0-0.1-0.1-0.1-0.1-0.2c0-0.2-0.1-0.3-0.1-0.5c0-0.1,0-0.2,0-0.2   c0-0.3-0.1-0.6-0.1-0.9c0,0,0-0.1,0-0.1C78.8,21.3,78.8,21.3,78.8,21.2z M71.8,19.8c0.5-0.5,3,0.1,5,1.8c0,0.1,0,0.2,0,0.2   c0,0.2,0,0.5,0.1,0.7c0,0.1,0,0.2,0,0.3c0,0.2,0.1,0.4,0.1,0.5c0,0.1,0,0.2,0.1,0.3c0.1,0.2,0.1,0.3,0.2,0.5c0,0.1,0,0.1,0.1,0.2   c0.1,0.2,0.2,0.4,0.3,0.6c0,0,0,0,0,0c-0.3,0.2-0.5,0.4-0.7,0.7c0,0,0,0,0,0c-0.2-0.1-0.4-0.2-0.6-0.3c-0.1,0-0.1,0-0.2-0.1   c-0.2-0.1-0.3-0.1-0.5-0.2c-0.1,0-0.2,0-0.3-0.1c-0.2,0-0.3-0.1-0.5-0.1c-0.1,0-0.2,0-0.3,0c-0.2,0-0.4,0-0.7-0.1   c-0.1,0-0.1,0-0.2,0C71.9,22.8,71.3,20.4,71.8,19.8z M68,29c0-0.8,2.4-2.2,5.2-2.2c0,0,0.1,0,0.1,0c0,0,0.1,0,0.1,0   c0.3,0,0.6,0,0.9,0.1c0.1,0,0.2,0,0.2,0c0.2,0,0.4,0.1,0.5,0.1c0.1,0,0.2,0,0.2,0.1c0.2,0.1,0.3,0.1,0.4,0.2c0,0,0.1,0,0.1,0.1   c0,0,0,0,0,0c-0.2,0.5-0.3,1.1-0.3,1.6s0.1,1.1,0.3,1.6c0,0,0,0,0,0c0,0-0.1,0.1-0.1,0.1c-0.1,0.1-0.3,0.2-0.4,0.2   c-0.1,0-0.1,0.1-0.2,0.1c-0.2,0-0.3,0.1-0.5,0.1c-0.1,0-0.2,0-0.2,0c-0.3,0-0.6,0.1-0.9,0.1c0,0-0.1,0-0.1,0c0,0-0.1,0-0.1,0   C70.4,31.2,68,29.8,68,29z M71.8,38.2c-0.5-0.5,0.1-3,1.8-5c0.1,0,0.1,0,0.2,0c0.2,0,0.5,0,0.7-0.1c0.1,0,0.2,0,0.3,0   c0.2,0,0.4-0.1,0.5-0.1c0.1,0,0.2,0,0.3-0.1c0.2-0.1,0.3-0.1,0.5-0.2c0.1,0,0.1,0,0.2-0.1c0.2-0.1,0.4-0.2,0.6-0.3c0,0,0,0,0,0   c0.2,0.3,0.4,0.5,0.7,0.7c0,0,0,0,0,0c-0.1,0.2-0.2,0.4-0.3,0.6c0,0.1,0,0.1-0.1,0.2c-0.1,0.2-0.1,0.3-0.2,0.5c0,0.1,0,0.2-0.1,0.3   c0,0.2-0.1,0.3-0.1,0.5c0,0.1,0,0.2,0,0.3c0,0.2,0,0.4-0.1,0.7c0,0.1,0,0.1,0,0.2C74.8,38.1,72.4,38.7,71.8,38.2z M78.8,36.8   c0,0,0-0.1,0-0.1c0,0,0-0.1,0-0.1c0-0.3,0-0.6,0.1-0.9c0-0.1,0-0.2,0-0.2c0-0.2,0.1-0.4,0.1-0.5c0-0.1,0-0.2,0.1-0.2   c0.1-0.2,0.1-0.3,0.2-0.4c0,0,0.1-0.1,0.1-0.1c0,0,0,0,0,0c1.1,0.3,2.2,0.3,3.2,0c0,0,0,0,0,0c0,0,0.1,0.1,0.1,0.1   c0.1,0.1,0.1,0.3,0.2,0.4c0,0.1,0.1,0.1,0.1,0.2c0,0.2,0.1,0.3,0.1,0.5c0,0.1,0,0.2,0,0.2c0,0.3,0.1,0.6,0.1,0.9c0,0,0,0.1,0,0.1   c0,0,0,0.1,0,0.1C83.2,39.6,81.8,42,81,42S78.8,39.6,78.8,36.8z M51.4,32c-0.1,0.1-0.2,0.1-0.3,0.1c-0.7,0.2-1.4,0.2-2.2,0   c-0.1,0-0.2-0.1-0.3-0.1c0,0,0,0,0,0c0,0,0,0,0,0c-0.7-0.3-1.2-0.8-1.5-1.5c0,0,0,0,0,0c0,0,0,0,0,0c-0.1-0.1-0.1-0.2-0.1-0.3   c0,0,0,0,0,0c-0.1-0.4-0.2-0.7-0.2-1.1s0.1-0.7,0.2-1.1c0-0.1,0.1-0.2,0.1-0.3c0,0,0,0,0,0c0,0,0,0,0,0c0.3-0.7,0.8-1.2,1.5-1.5   c0,0,0,0,0,0c0,0,0,0,0,0c0.1-0.1,0.2-0.1,0.3-0.1c0.7-0.2,1.4-0.2,2.2,0c0.1,0,0.2,0.1,0.3,0.1c0,0,0,0,0,0c0,0,0,0,0,0   c0.7,0.3,1.2,0.8,1.5,1.5c0,0,0,0,0,0c0,0,0,0,0,0c0.1,0.1,0.1,0.2,0.1,0.3c0.1,0.4,0.2,0.7,0.2,1.1s-0.1,0.7-0.2,1.1   c0,0.1-0.1,0.2-0.1,0.3c0,0,0,0,0,0c0,0,0,0,0,0C52.6,31.1,52.1,31.6,51.4,32C51.4,32,51.4,32,51.4,32C51.4,32,51.4,32,51.4,32z    M59.2,38.2L59.2,38.2c-0.5,0.5-3-0.1-5-1.8c0-0.1,0-0.2,0-0.2c0-0.2,0-0.5-0.1-0.7c0-0.1,0-0.2,0-0.3c0-0.2-0.1-0.4-0.1-0.5   c0-0.1,0-0.2-0.1-0.3c-0.1-0.2-0.1-0.3-0.2-0.5c0-0.1,0-0.1-0.1-0.2c-0.1-0.2-0.2-0.4-0.3-0.6c0,0,0,0,0,0c0.3-0.2,0.5-0.4,0.7-0.7   c0,0,0,0,0,0c0.2,0.1,0.4,0.2,0.6,0.3c0.1,0,0.1,0,0.2,0.1c0.2,0.1,0.3,0.1,0.5,0.2c0.1,0,0.2,0,0.3,0.1c0.2,0,0.3,0.1,0.5,0.1   c0.1,0,0.2,0,0.3,0c0.2,0,0.4,0,0.7,0.1c0.1,0,0.1,0,0.2,0C59.1,35.2,59.7,37.6,59.2,38.2z M63,29c0,0.8-2.4,2.2-5.2,2.2   c0,0-0.1,0-0.1,0c0,0-0.1,0-0.1,0c-0.3,0-0.6,0-0.9-0.1c-0.1,0-0.2,0-0.2,0c-0.2,0-0.4-0.1-0.5-0.1c-0.1,0-0.2,0-0.2-0.1   c-0.2-0.1-0.3-0.1-0.4-0.2c0,0-0.1,0-0.1-0.1c0,0,0,0,0,0c0.2-0.5,0.3-1.1,0.3-1.6c0-0.5-0.1-1.1-0.3-1.6c0,0,0,0,0,0   c0,0,0.1-0.1,0.1-0.1c0.1-0.1,0.3-0.2,0.4-0.2c0.1,0,0.1-0.1,0.2-0.1c0.2,0,0.3-0.1,0.5-0.1c0.1,0,0.2,0,0.2,0   c0.3,0,0.6-0.1,0.9-0.1c0,0,0.1,0,0.1,0c0,0,0.1,0,0.1,0C60.6,26.8,63,28.2,63,29z M59.2,19.8c0.5,0.5-0.1,3-1.8,5   c-0.1,0-0.1,0-0.2,0c-0.2,0-0.5,0-0.7,0.1c-0.1,0-0.2,0-0.3,0c-0.2,0-0.4,0.1-0.5,0.1c-0.1,0-0.2,0-0.3,0.1   c-0.2,0.1-0.3,0.1-0.5,0.2c-0.1,0-0.1,0-0.2,0.1c-0.2,0.1-0.4,0.2-0.6,0.3c0,0,0,0,0,0c-0.2-0.3-0.4-0.5-0.7-0.7c0,0,0,0,0,0   c0.1-0.2,0.2-0.4,0.3-0.6c0-0.1,0-0.1,0.1-0.2c0.1-0.2,0.1-0.3,0.2-0.5c0-0.1,0-0.2,0.1-0.3c0-0.2,0.1-0.3,0.1-0.5   c0-0.1,0-0.2,0-0.3c0-0.2,0-0.4,0.1-0.7c0-0.1,0-0.1,0-0.2C56.2,19.9,58.6,19.3,59.2,19.8z M47.8,21.2c0.1-2.8,1.4-5.2,2.2-5.2   s2.2,2.4,2.2,5.2c0,0,0,0.1,0,0.1c0,0,0,0.1,0,0.1c0,0.3,0,0.6-0.1,0.9c0,0.1,0,0.2,0,0.2c0,0.2-0.1,0.4-0.1,0.5   c0,0.1,0,0.2-0.1,0.2c-0.1,0.2-0.1,0.3-0.2,0.4c0,0-0.1,0.1-0.1,0.1c0,0,0,0,0,0c-0.5-0.2-1.1-0.3-1.6-0.3c-0.5,0-1.1,0.1-1.6,0.3   c0,0,0,0,0,0c0,0-0.1-0.1-0.1-0.1c-0.1-0.1-0.1-0.3-0.2-0.4c0-0.1-0.1-0.1-0.1-0.2c0-0.2-0.1-0.3-0.1-0.5c0-0.1,0-0.2,0-0.2   c0-0.3-0.1-0.6-0.1-0.9c0,0,0-0.1,0-0.1C47.8,21.3,47.8,21.3,47.8,21.2z M40.8,19.8c0.5-0.5,3,0.1,5,1.8c0,0.1,0,0.2,0,0.2   c0,0.2,0,0.5,0.1,0.7c0,0.1,0,0.2,0,0.3c0,0.2,0.1,0.4,0.1,0.5c0,0.1,0,0.2,0.1,0.3c0.1,0.2,0.1,0.3,0.2,0.5c0,0.1,0,0.1,0.1,0.2   c0.1,0.2,0.2,0.4,0.3,0.6c0,0,0,0,0,0c-0.3,0.2-0.5,0.4-0.7,0.7c0,0,0,0,0,0c-0.2-0.1-0.4-0.2-0.6-0.3c-0.1,0-0.1,0-0.2-0.1   c-0.2-0.1-0.3-0.1-0.5-0.2c-0.1,0-0.2,0-0.3-0.1c-0.2,0-0.3-0.1-0.5-0.1c-0.1,0-0.2,0-0.3,0c-0.2,0-0.4,0-0.7-0.1   c-0.1,0-0.1,0-0.2,0C40.9,22.8,40.3,20.4,40.8,19.8z M37,29c0-0.8,2.4-2.2,5.2-2.2c0,0,0.1,0,0.1,0c0,0,0.1,0,0.1,0   c0.3,0,0.6,0,0.9,0.1c0.1,0,0.2,0,0.2,0c0.2,0,0.4,0.1,0.5,0.1c0.1,0,0.2,0,0.2,0.1c0.2,0.1,0.3,0.1,0.4,0.2c0,0,0.1,0,0.1,0.1   c0,0,0,0,0,0c-0.2,0.5-0.3,1.1-0.3,1.6s0.1,1.1,0.3,1.6c0,0,0,0,0,0c0,0-0.1,0.1-0.1,0.1c-0.1,0.1-0.3,0.2-0.4,0.2   c-0.1,0-0.1,0.1-0.2,0.1c-0.2,0-0.3,0.1-0.5,0.1c-0.1,0-0.2,0-0.2,0c-0.3,0-0.6,0.1-0.9,0.1c0,0-0.1,0-0.1,0c0,0-0.1,0-0.1,0   C39.4,31.2,37,29.8,37,29z M40.8,38.2c-0.5-0.5,0.1-3,1.8-5c0.1,0,0.1,0,0.2,0c0.2,0,0.5,0,0.7-0.1c0.1,0,0.2,0,0.3,0   c0.2,0,0.4-0.1,0.5-0.1c0.1,0,0.2,0,0.3-0.1c0.2-0.1,0.3-0.1,0.5-0.2c0.1,0,0.1,0,0.2-0.1c0.2-0.1,0.4-0.2,0.6-0.3c0,0,0,0,0,0   c0.2,0.3,0.4,0.5,0.7,0.7c0,0,0,0,0,0c-0.1,0.2-0.2,0.4-0.3,0.6c0,0.1,0,0.1-0.1,0.2c-0.1,0.2-0.1,0.3-0.2,0.5c0,0.1,0,0.2-0.1,0.3   c0,0.2-0.1,0.3-0.1,0.5c0,0.1,0,0.2,0,0.3c0,0.2,0,0.4-0.1,0.7c0,0.1,0,0.1,0,0.2C43.8,38.1,41.4,38.7,40.8,38.2z M47.8,36.8   c0,0,0-0.1,0-0.1c0,0,0-0.1,0-0.1c0-0.3,0-0.6,0.1-0.9c0-0.1,0-0.2,0-0.2c0-0.2,0.1-0.4,0.1-0.5c0-0.1,0-0.2,0.1-0.2   c0.1-0.2,0.1-0.3,0.2-0.4c0,0,0.1-0.1,0.1-0.1c0,0,0,0,0,0c1.1,0.3,2.2,0.3,3.2,0c0,0,0,0,0,0c0,0,0.1,0.1,0.1,0.1   c0.1,0.1,0.1,0.3,0.2,0.4c0,0.1,0.1,0.1,0.1,0.2c0,0.2,0.1,0.3,0.1,0.5c0,0.1,0,0.2,0,0.2c0,0.3,0.1,0.6,0.1,0.9c0,0,0,0.1,0,0.1   c0,0,0,0.1,0,0.1C52.2,39.6,50.8,42,50,42S47.8,39.6,47.8,36.8z M20.4,32c-0.1,0.1-0.2,0.1-0.3,0.1c-0.7,0.2-1.4,0.2-2.2,0   c-0.1,0-0.2-0.1-0.3-0.1c0,0,0,0,0,0c0,0,0,0,0,0c-0.7-0.3-1.2-0.8-1.5-1.5c0,0,0,0,0,0c0,0,0,0,0,0c-0.1-0.1-0.1-0.2-0.1-0.3   c0,0,0,0,0,0c-0.1-0.4-0.2-0.7-0.2-1.1s0.1-0.7,0.2-1.1c0-0.1,0.1-0.2,0.1-0.3c0,0,0,0,0,0c0,0,0,0,0,0c0.3-0.7,0.8-1.2,1.5-1.5   c0,0,0,0,0,0c0,0,0,0,0,0c0.1-0.1,0.2-0.1,0.3-0.1c0.7-0.2,1.4-0.2,2.2,0c0.1,0,0.2,0.1,0.3,0.1c0,0,0,0,0,0c0,0,0,0,0,0   c0.7,0.3,1.2,0.8,1.5,1.5c0,0,0,0,0,0c0,0,0,0,0,0c0.1,0.1,0.1,0.2,0.1,0.3c0.1,0.4,0.2,0.7,0.2,1.1s-0.1,0.7-0.2,1.1   c0,0.1-0.1,0.2-0.1,0.3c0,0,0,0,0,0c0,0,0,0,0,0C21.6,31.1,21.1,31.6,20.4,32C20.4,32,20.4,32,20.4,32C20.4,32,20.4,32,20.4,32z    M28.2,38.2L28.2,38.2c-0.5,0.5-3-0.1-5-1.8c0-0.1,0-0.2,0-0.2c0-0.2,0-0.5-0.1-0.7c0-0.1,0-0.2,0-0.3c0-0.2-0.1-0.4-0.1-0.5   c0-0.1,0-0.2-0.1-0.3c-0.1-0.2-0.1-0.3-0.2-0.5c0-0.1,0-0.1-0.1-0.2c-0.1-0.2-0.2-0.4-0.3-0.6c0,0,0,0,0,0c0.3-0.2,0.5-0.4,0.7-0.7   c0,0,0,0,0,0c0.2,0.1,0.4,0.2,0.6,0.3c0.1,0,0.1,0,0.2,0.1c0.2,0.1,0.3,0.1,0.5,0.2c0.1,0,0.2,0,0.3,0.1c0.2,0,0.3,0.1,0.5,0.1   c0.1,0,0.2,0,0.3,0c0.2,0,0.4,0,0.7,0.1c0.1,0,0.1,0,0.2,0C28.1,35.2,28.7,37.6,28.2,38.2z M32,29c0,0.8-2.4,2.2-5.2,2.2   c0,0-0.1,0-0.1,0c0,0-0.1,0-0.1,0c-0.3,0-0.6,0-0.9-0.1c-0.1,0-0.2,0-0.2,0c-0.2,0-0.4-0.1-0.5-0.1c-0.1,0-0.2,0-0.2-0.1   c-0.2-0.1-0.3-0.1-0.4-0.2c0,0-0.1,0-0.1-0.1c0,0,0,0,0,0c0.2-0.5,0.3-1.1,0.3-1.6c0-0.5-0.1-1.1-0.3-1.6c0,0,0,0,0,0   c0,0,0.1-0.1,0.1-0.1c0.1-0.1,0.3-0.2,0.4-0.2c0.1,0,0.1-0.1,0.2-0.1c0.2,0,0.3-0.1,0.5-0.1c0.1,0,0.2,0,0.2,0   c0.3,0,0.6-0.1,0.9-0.1c0,0,0.1,0,0.1,0c0,0,0.1,0,0.1,0C29.6,26.8,32,28.2,32,29z M28.2,19.8c0.5,0.5-0.1,3-1.8,5   c-0.1,0-0.1,0-0.2,0c-0.2,0-0.5,0-0.7,0.1c-0.1,0-0.2,0-0.3,0c-0.2,0-0.4,0.1-0.5,0.1c-0.1,0-0.2,0-0.3,0.1   c-0.2,0.1-0.3,0.1-0.5,0.2c-0.1,0-0.1,0-0.2,0.1c-0.2,0.1-0.4,0.2-0.6,0.3c0,0,0,0,0,0c-0.2-0.3-0.4-0.5-0.7-0.7c0,0,0,0,0,0   c0.1-0.2,0.2-0.4,0.3-0.6c0-0.1,0-0.1,0.1-0.2c0.1-0.2,0.1-0.3,0.2-0.5c0-0.1,0-0.2,0.1-0.3c0-0.2,0.1-0.3,0.1-0.5   c0-0.1,0-0.2,0-0.3c0-0.2,0-0.4,0.1-0.7c0-0.1,0-0.1,0-0.2C25.2,19.9,27.6,19.3,28.2,19.8z M16.8,21.2c0.1-2.8,1.4-5.2,2.2-5.2   s2.2,2.4,2.2,5.2c0,0,0,0.1,0,0.1c0,0,0,0.1,0,0.1c0,0.3,0,0.6-0.1,0.9c0,0.1,0,0.2,0,0.2c0,0.2-0.1,0.4-0.1,0.5   c0,0.1,0,0.2-0.1,0.2c-0.1,0.2-0.1,0.3-0.2,0.4c0,0-0.1,0.1-0.1,0.1c0,0,0,0,0,0c-0.5-0.2-1.1-0.3-1.6-0.3c-0.5,0-1.1,0.1-1.6,0.3   c0,0,0,0,0,0c0,0-0.1-0.1-0.1-0.1c-0.1-0.1-0.1-0.3-0.2-0.4c0-0.1-0.1-0.1-0.1-0.2c0-0.2-0.1-0.3-0.1-0.5c0-0.1,0-0.2,0-0.2   c0-0.3-0.1-0.6-0.1-0.9c0,0,0-0.1,0-0.1C16.8,21.3,16.8,21.3,16.8,21.2z M9.8,19.8c0.5-0.5,3,0.1,5,1.8c0,0.1,0,0.2,0,0.2   c0,0.2,0,0.5,0.1,0.7c0,0.1,0,0.2,0,0.3c0,0.2,0.1,0.4,0.1,0.5c0,0.1,0,0.2,0.1,0.3c0.1,0.2,0.1,0.3,0.2,0.5c0,0.1,0,0.1,0.1,0.2   c0.1,0.2,0.2,0.4,0.3,0.6c0,0,0,0,0,0c-0.3,0.2-0.5,0.4-0.7,0.7c0,0,0,0,0,0c-0.2-0.1-0.4-0.2-0.6-0.3c-0.1,0-0.1,0-0.2-0.1   c-0.2-0.1-0.3-0.1-0.5-0.2c-0.1,0-0.2,0-0.3-0.1c-0.2,0-0.3-0.1-0.5-0.1c-0.1,0-0.2,0-0.3,0c-0.2,0-0.4,0-0.7-0.1   c-0.1,0-0.1,0-0.2,0C9.9,22.8,9.3,20.4,9.8,19.8z M6,29c0-0.8,2.4-2.2,5.2-2.2c0,0,0.1,0,0.1,0c0,0,0.1,0,0.1,0   c0.3,0,0.6,0,0.9,0.1c0.1,0,0.2,0,0.2,0c0.2,0,0.4,0.1,0.5,0.1c0.1,0,0.2,0,0.2,0.1c0.2,0.1,0.3,0.1,0.4,0.2c0,0,0.1,0,0.1,0.1   c0,0,0,0,0,0c-0.2,0.5-0.3,1.1-0.3,1.6s0.1,1.1,0.3,1.6c0,0,0,0,0,0c0,0-0.1,0.1-0.1,0.1c-0.1,0.1-0.3,0.2-0.4,0.2   c-0.1,0-0.1,0.1-0.2,0.1c-0.2,0-0.3,0.1-0.5,0.1c-0.1,0-0.2,0-0.2,0c-0.3,0-0.6,0.1-0.9,0.1c0,0-0.1,0-0.1,0c0,0-0.1,0-0.1,0   C8.4,31.2,6,29.8,6,29z M9.8,38.2c-0.5-0.5,0.1-3,1.8-5c0.1,0,0.1,0,0.2,0c0.2,0,0.5,0,0.7-0.1c0.1,0,0.2,0,0.3,0   c0.2,0,0.4-0.1,0.5-0.1c0.1,0,0.2,0,0.3-0.1c0.2-0.1,0.3-0.1,0.5-0.2c0.1,0,0.1,0,0.2-0.1c0.2-0.1,0.4-0.2,0.6-0.3c0,0,0,0,0,0   c0.2,0.3,0.4,0.5,0.7,0.7c0,0,0,0,0,0c-0.1,0.2-0.2,0.4-0.3,0.6c0,0.1,0,0.1-0.1,0.2c-0.1,0.2-0.1,0.3-0.2,0.5c0,0.1,0,0.2-0.1,0.3   c0,0.2-0.1,0.3-0.1,0.5c0,0.1,0,0.2,0,0.3c0,0.2,0,0.4-0.1,0.7c0,0.1,0,0.1,0,0.2C12.8,38.1,10.4,38.7,9.8,38.2z M16.8,36.8   c0,0,0-0.1,0-0.1c0,0,0-0.1,0-0.1c0-0.3,0-0.6,0.1-0.9c0-0.1,0-0.2,0-0.2c0-0.2,0.1-0.4,0.1-0.5c0-0.1,0-0.2,0.1-0.2   c0.1-0.2,0.1-0.3,0.2-0.4c0,0,0.1-0.1,0.1-0.1c0,0,0,0,0,0c1.1,0.3,2.2,0.3,3.2,0c0,0,0,0,0,0c0,0,0.1,0.1,0.1,0.1   c0.1,0.1,0.1,0.3,0.2,0.4c0,0.1,0.1,0.1,0.1,0.2c0,0.2,0.1,0.3,0.1,0.5c0,0.1,0,0.2,0,0.2c0,0.3,0.1,0.6,0.1,0.9c0,0,0,0.1,0,0.1   c0,0,0,0.1,0,0.1C21.2,39.6,19.8,42,19,42S16.8,39.6,16.8,36.8z M43,84H6.5c0.4-0.4,1-0.8,1.8-1.3c0.3-0.2,0.6-0.4,1-0.6   c0.5-0.4,1-0.9,1.5-1.5c0.7-0.8,1.4-1.6,2.2-1.9c0.5-0.2,1.1-0.1,1.8,0c0.8,0.1,1.8,0.3,2.8,0c0.8-0.2,1.6-0.7,2.3-1.2   c0.7-0.5,1.4-0.9,2-1c0.5-0.1,1.2,0.2,1.9,0.4c0.8,0.3,1.7,0.6,2.7,0.5c0.9-0.1,1.7-0.5,2.5-0.9c0.7-0.4,1.4-0.7,2-0.7   s1.3,0.3,2,0.7c0.8,0.4,1.6,0.8,2.5,0.9c1,0.1,1.9-0.3,2.7-0.5c0.7-0.2,1.4-0.5,1.9-0.4c0.6,0.1,1.3,0.6,2,1c0.7,0.5,1.5,1,2.3,1.2   c1,0.2,1.9,0.1,2.8,0c0.7-0.1,1.4-0.2,1.8,0c0.8,0.3,1.5,1.1,2.2,1.9c0.5,0.6,1,1.1,1.5,1.5c0.3,0.2,0.6,0.4,1,0.6   c0.8,0.5,1.4,0.9,1.8,1.3H43z M57.8,84c-0.5-1.3-1.7-2.1-3-3c-0.3-0.2-0.6-0.4-0.9-0.6c-0.3-0.2-0.7-0.7-1.2-1.2   c-0.2-0.2-0.3-0.4-0.5-0.6c0.2,0,0.5,0.1,0.7,0.1c0.8,0.1,1.8,0.3,2.8,0c0.8-0.2,1.6-0.7,2.3-1.2c0.7-0.5,1.4-0.9,2-1   c0.5-0.1,1.2,0.2,1.9,0.4c0.8,0.3,1.7,0.6,2.7,0.5c0.9-0.1,1.7-0.5,2.5-0.9c0.7-0.4,1.4-0.7,2-0.7c0.6,0,1.3,0.3,2,0.7   c0.8,0.4,1.6,0.8,2.5,0.9c1,0.1,1.9-0.2,2.7-0.5c0.7-0.2,1.3-0.5,1.9-0.4c0.6,0.1,1.3,0.6,2,1c0.7,0.5,1.5,1,2.3,1.2   c1,0.2,1.9,0.1,2.8,0c0.7-0.1,1.4-0.2,1.8,0c0.8,0.3,1.5,1.1,2.2,1.9c0.5,0.6,1,1.1,1.5,1.5c0.3,0.2,0.7,0.4,1,0.7   c0.8,0.5,1.3,0.9,1.7,1.3H57.8z"/>
</g>
<g id="sprinkle"/>
<g id="water_hose"/>
<g id="planting"/>
<g id="fertilizer"/>
<g id="bee"/>
<g id="butterfly"/>
<g id="shovel"/>
<g id="ladybug"/>
<g id="watering"/>
<g id="hanging_pot"/>
<g id="green_house"/>
</svg>