<?xml version="1.0" ?>

<!-- Uploaded to: SVG Repo, www.svgrepo.com, Generator: SVG Repo Mixer Tools -->
<svg fill="#000000" width="800px" height="800px" viewBox="0 0 512 512" version="1.1" xml:space="preserve" xmlns="http://www.w3.org/2000/svg" xmlns:xlink="http://www.w3.org/1999/xlink">

<g id="plant-flower-heart-love-valentine">

<path d="M174.4,386.96h163.2l-17.28,72.72c-1.76,7.2-8.16,12.32-15.6,12.32h-97.44c-7.44,0-13.84-5.12-15.6-12.32L174.4,386.96z    M401.68,297.666l-19.952,20.46c-3.14,3.22-8.315,3.22-11.455,0l-19.952-20.46c-7.017-7.196-8.387-18.749-2.104-26.594   c5.024-6.274,12.863-8.28,19.784-6.207v-30.093c-7.134,5.869-15.897,9.227-25.258,9.227h-23.43L272,291.313V344h66.56   c7.423,0,13.44,6.017,13.44,13.44v0.067c0,7.423-6.017,13.44-13.44,13.44H173.44c-7.423,0-13.44-6.017-13.44-13.44v-0.067   c0-7.423,6.017-13.44,13.44-13.44H240v-28.688L172.688,248h-23.43c-1.786,0-3.517-0.285-5.258-0.514v25.379   c6.921-2.074,14.76-0.067,19.784,6.207c6.283,7.845,4.913,19.398-2.104,26.594l-19.952,20.46c-3.14,3.22-8.315,3.22-11.455,0   l-19.952-20.46c-7.017-7.196-8.387-18.749-2.104-26.594c5.024-6.274,12.863-8.28,19.784-6.207v-31.07   c-6.124-3.867-8.279-6.762-20.281-18.764C100.164,215.477,96,205.43,96,194.742V176c0-8.82,7.18-16,16-16h18.742   c10.688,0,20.734,4.164,28.289,11.719l13.25,13.25C179.836,192.523,184,202.57,184,213.258v23.43l56,56v-92.723   c-2.391-1.393-4.69-2.996-6.733-5.061l-55.714-56.324c-20.313-20.536-23.811-53.537-6.196-76.467   c21.282-27.705,60.907-29.559,84.644-5.562c23.737-23.997,63.362-22.143,84.644,5.562c17.614,22.93,14.118,55.931-6.196,76.466   l-55.715,56.324c-2.043,2.065-4.343,3.668-6.733,5.061v68.723l36-36v-23.43c0-10.688,4.164-20.734,11.719-28.289l13.25-13.25   C340.523,160.164,350.57,156,361.258,156H380c8.82,0,16,7.18,16,16v18.742c0,10.688-4.164,20.734-11.719,28.289L384,219.313v45.553   c6.921-2.074,14.76-0.067,19.784,6.207C410.067,278.917,408.697,290.47,401.68,297.666z M149.258,232h7.43l-30.344-30.344   c-3.125-3.125-3.125-8.188,0-11.313s8.188-3.125,11.313,0L168,220.688v-7.43c0-6.414-2.5-12.438-7.031-16.977l-13.25-13.25   C143.18,178.5,137.156,176,130.742,176H112v18.742c0,6.414,2.5,12.438,7.031,16.977l13.25,13.25   C136.82,229.5,142.844,232,149.258,232z M359.719,220.969l10.615-10.615c0.006-0.006,0.014-0.014,0.021-0.021   c5.666-5.666,9.646-10.491,9.646-19.591V172h-18.742c-6.414,0-12.445,2.5-16.977,7.031l-13.25,13.25   C326.5,196.813,324,202.844,324,209.258v7.43l30.344-30.344c3.125-3.125,8.188-3.125,11.313,0s3.125,8.188,0,11.313L335.313,228   h7.43C349.156,228,355.188,225.5,359.719,220.969z"/>

</g>

<g id="Layer_1"/>

</svg>