<?xml version="1.0" encoding="iso-8859-1"?>
<!-- Uploaded to: SVG Repo, www.svgrepo.com, Generator: SVG Repo Mixer Tools -->
<!DOCTYPE svg PUBLIC "-//W3C//DTD SVG 1.1//EN" "http://www.w3.org/Graphics/SVG/1.1/DTD/svg11.dtd">
<svg fill="#000000" height="800px" width="800px" version="1.1" id="Capa_1" xmlns="http://www.w3.org/2000/svg" xmlns:xlink="http://www.w3.org/1999/xlink" 
	 viewBox="0 0 297 297" xml:space="preserve">
<g>
	<path d="M211.532,139.131V80.574h6.533c5.174,0,9.369-4.196,9.369-9.369c0-5.175-4.195-9.369-9.369-9.369H78.935
		c-5.174,0-9.369,4.194-9.369,9.369c0,5.173,4.195,9.369,9.369,9.369h6.533v43.098H9.369c-5.174,0-9.369,4.194-9.369,9.369
		c0,5.173,4.195,9.369,9.369,9.369h9.02v83.385c0,2.484,0.987,4.867,2.744,6.626c1.757,1.757,4.14,2.743,6.625,2.743h241.484
		c5.174,0,9.369-4.195,9.369-9.369v-67.926h9.02c5.174,0,9.369-4.196,9.369-9.369c0-5.175-4.195-9.369-9.369-9.369H211.532z
		 M61.367,179.418c0,3.104-2.517,5.621-5.621,5.621s-5.622-2.518-5.622-5.621v-15.459c0-3.105,2.518-5.621,5.622-5.621
		s5.621,2.516,5.621,5.621V179.418z M76.826,179.418c0,3.104-2.517,5.621-5.621,5.621s-5.621-2.518-5.621-5.621v-15.459
		c0-3.105,2.517-5.621,5.621-5.621s5.621,2.516,5.621,5.621V179.418z M154.121,117.582c0,3.105-2.517,5.621-5.621,5.621
		s-5.621-2.516-5.621-5.621v-15.459c0-3.105,2.517-5.621,5.621-5.621s5.621,2.516,5.621,5.621V117.582z M215.957,194.877
		c0,3.104-2.517,5.621-5.621,5.621c-3.105,0-5.621-2.518-5.621-5.621v-15.459c0-3.105,2.517-5.621,5.621-5.621
		c3.104,0,5.621,2.516,5.621,5.621V194.877z M231.416,194.877c0,3.104-2.517,5.621-5.621,5.621c-3.105,0-5.621-2.518-5.621-5.621
		v-15.459c0-3.105,2.517-5.621,5.621-5.621c3.104,0,5.621,2.516,5.621,5.621V194.877z M246.875,194.877
		c0,3.104-2.517,5.621-5.621,5.621c-3.105,0-5.621-2.518-5.621-5.621v-15.459c0-3.105,2.517-5.621,5.621-5.621
		c3.104,0,5.621,2.516,5.621,5.621V194.877z"/>
</g>
</svg>